<mxfile host="app.diagrams.net" agent="Mozilla/5.0 (Windows NT 10.0; Win64; x64) AppleWebKit/537.36 (KHTML, like Gecko) Chrome/133.0.0.0 Safari/537.36 Edg/133.0.0.0" version="26.0.16">
  <diagram id="C5RBs43oDa-KdzZeNtuy" name="Page-1">
    <mxGraphModel dx="1127" dy="656" grid="1" gridSize="10" guides="1" tooltips="1" connect="1" arrows="1" fold="1" page="1" pageScale="1" pageWidth="827" pageHeight="1169" math="0" shadow="0">
      <root>
        <mxCell id="WIyWlLk6GJQsqaUBKTNV-0" />
        <mxCell id="WIyWlLk6GJQsqaUBKTNV-1" parent="WIyWlLk6GJQsqaUBKTNV-0" />
        <mxCell id="lglR9xMXQ9shgzc-vVbZ-0" value="BaseFMS" style="swimlane;fontStyle=1;align=center;verticalAlign=top;childLayout=stackLayout;horizontal=1;startSize=26;horizontalStack=0;resizeParent=1;resizeParentMax=0;resizeLast=0;collapsible=1;marginBottom=0;whiteSpace=wrap;html=1;" parent="WIyWlLk6GJQsqaUBKTNV-1" vertex="1">
          <mxGeometry x="250" y="130" width="350" height="320" as="geometry" />
        </mxCell>
        <mxCell id="lglR9xMXQ9shgzc-vVbZ-1" value="- _owner : T" style="text;strokeColor=none;fillColor=none;align=left;verticalAlign=top;spacingLeft=4;spacingRight=4;overflow=hidden;rotatable=0;points=[[0,0.5],[1,0.5]];portConstraint=eastwest;whiteSpace=wrap;html=1;" parent="lglR9xMXQ9shgzc-vVbZ-0" vertex="1">
          <mxGeometry y="26" width="350" height="26" as="geometry" />
        </mxCell>
        <mxCell id="ADLs4xy4XqtTe4u1tksE-15" value="- _states : Dictionary&amp;lt;string, FSMState&amp;lt;T&amp;gt;&amp;gt;&amp;nbsp;" style="text;strokeColor=none;fillColor=none;align=left;verticalAlign=top;spacingLeft=4;spacingRight=4;overflow=hidden;rotatable=0;points=[[0,0.5],[1,0.5]];portConstraint=eastwest;whiteSpace=wrap;html=1;" vertex="1" parent="lglR9xMXQ9shgzc-vVbZ-0">
          <mxGeometry y="52" width="350" height="26" as="geometry" />
        </mxCell>
        <mxCell id="ADLs4xy4XqtTe4u1tksE-16" value="- _defaultStates : FSMState&amp;lt;T&amp;gt;&amp;gt;" style="text;strokeColor=none;fillColor=none;align=left;verticalAlign=top;spacingLeft=4;spacingRight=4;overflow=hidden;rotatable=0;points=[[0,0.5],[1,0.5]];portConstraint=eastwest;whiteSpace=wrap;html=1;" vertex="1" parent="lglR9xMXQ9shgzc-vVbZ-0">
          <mxGeometry y="78" width="350" height="26" as="geometry" />
        </mxCell>
        <mxCell id="ADLs4xy4XqtTe4u1tksE-17" value="- _currentStates : FSMState&amp;lt;T&amp;gt;" style="text;strokeColor=none;fillColor=none;align=left;verticalAlign=top;spacingLeft=4;spacingRight=4;overflow=hidden;rotatable=0;points=[[0,0.5],[1,0.5]];portConstraint=eastwest;whiteSpace=wrap;html=1;" vertex="1" parent="lglR9xMXQ9shgzc-vVbZ-0">
          <mxGeometry y="104" width="350" height="26" as="geometry" />
        </mxCell>
        <mxCell id="ADLs4xy4XqtTe4u1tksE-18" value="- _isInit : bool" style="text;strokeColor=none;fillColor=none;align=left;verticalAlign=top;spacingLeft=4;spacingRight=4;overflow=hidden;rotatable=0;points=[[0,0.5],[1,0.5]];portConstraint=eastwest;whiteSpace=wrap;html=1;" vertex="1" parent="lglR9xMXQ9shgzc-vVbZ-0">
          <mxGeometry y="130" width="350" height="26" as="geometry" />
        </mxCell>
        <mxCell id="lglR9xMXQ9shgzc-vVbZ-2" value="" style="line;strokeWidth=1;fillColor=none;align=left;verticalAlign=middle;spacingTop=-1;spacingLeft=3;spacingRight=3;rotatable=0;labelPosition=right;points=[];portConstraint=eastwest;strokeColor=inherit;" parent="lglR9xMXQ9shgzc-vVbZ-0" vertex="1">
          <mxGeometry y="156" width="350" height="8" as="geometry" />
        </mxCell>
        <mxCell id="lglR9xMXQ9shgzc-vVbZ-3" value="+ BaseFSM (T owner)" style="text;strokeColor=none;fillColor=none;align=left;verticalAlign=top;spacingLeft=4;spacingRight=4;overflow=hidden;rotatable=0;points=[[0,0.5],[1,0.5]];portConstraint=eastwest;whiteSpace=wrap;html=1;" parent="lglR9xMXQ9shgzc-vVbZ-0" vertex="1">
          <mxGeometry y="164" width="350" height="26" as="geometry" />
        </mxCell>
        <mxCell id="ADLs4xy4XqtTe4u1tksE-19" value="+ Update : void" style="text;strokeColor=none;fillColor=none;align=left;verticalAlign=top;spacingLeft=4;spacingRight=4;overflow=hidden;rotatable=0;points=[[0,0.5],[1,0.5]];portConstraint=eastwest;whiteSpace=wrap;html=1;" vertex="1" parent="lglR9xMXQ9shgzc-vVbZ-0">
          <mxGeometry y="190" width="350" height="26" as="geometry" />
        </mxCell>
        <mxCell id="ADLs4xy4XqtTe4u1tksE-20" value="+ SetDefault(string stateName) : void" style="text;strokeColor=none;fillColor=none;align=left;verticalAlign=top;spacingLeft=4;spacingRight=4;overflow=hidden;rotatable=0;points=[[0,0.5],[1,0.5]];portConstraint=eastwest;whiteSpace=wrap;html=1;" vertex="1" parent="lglR9xMXQ9shgzc-vVbZ-0">
          <mxGeometry y="216" width="350" height="26" as="geometry" />
        </mxCell>
        <mxCell id="ADLs4xy4XqtTe4u1tksE-21" value="+ AddState(string stateName, FSMState&amp;lt;T&amp;gt; state) : void" style="text;strokeColor=none;fillColor=none;align=left;verticalAlign=top;spacingLeft=4;spacingRight=4;overflow=hidden;rotatable=0;points=[[0,0.5],[1,0.5]];portConstraint=eastwest;whiteSpace=wrap;html=1;" vertex="1" parent="lglR9xMXQ9shgzc-vVbZ-0">
          <mxGeometry y="242" width="350" height="26" as="geometry" />
        </mxCell>
        <mxCell id="ADLs4xy4XqtTe4u1tksE-22" value="+ Init() : void" style="text;strokeColor=none;fillColor=none;align=left;verticalAlign=top;spacingLeft=4;spacingRight=4;overflow=hidden;rotatable=0;points=[[0,0.5],[1,0.5]];portConstraint=eastwest;whiteSpace=wrap;html=1;" vertex="1" parent="lglR9xMXQ9shgzc-vVbZ-0">
          <mxGeometry y="268" width="350" height="26" as="geometry" />
        </mxCell>
        <mxCell id="ADLs4xy4XqtTe4u1tksE-23" value="+ ChangeState(string stateName) : void" style="text;strokeColor=none;fillColor=none;align=left;verticalAlign=top;spacingLeft=4;spacingRight=4;overflow=hidden;rotatable=0;points=[[0,0.5],[1,0.5]];portConstraint=eastwest;whiteSpace=wrap;html=1;" vertex="1" parent="lglR9xMXQ9shgzc-vVbZ-0">
          <mxGeometry y="294" width="350" height="26" as="geometry" />
        </mxCell>
        <mxCell id="lglR9xMXQ9shgzc-vVbZ-5" value="FSMCondition&amp;lt;T&amp;gt;" style="swimlane;fontStyle=1;align=center;verticalAlign=top;childLayout=stackLayout;horizontal=1;startSize=26;horizontalStack=0;resizeParent=1;resizeParentMax=0;resizeLast=0;collapsible=1;marginBottom=0;whiteSpace=wrap;html=1;" parent="WIyWlLk6GJQsqaUBKTNV-1" vertex="1">
          <mxGeometry y="650" width="497.29" height="242" as="geometry" />
        </mxCell>
        <mxCell id="lglR9xMXQ9shgzc-vVbZ-6" value="_conditionHandle : Func&amp;lt;T, bool&amp;gt;" style="text;strokeColor=none;fillColor=none;align=left;verticalAlign=top;spacingLeft=4;spacingRight=4;overflow=hidden;rotatable=0;points=[[0,0.5],[1,0.5]];portConstraint=eastwest;whiteSpace=wrap;html=1;" parent="lglR9xMXQ9shgzc-vVbZ-5" vertex="1">
          <mxGeometry y="26" width="497.29" height="26" as="geometry" />
        </mxCell>
        <mxCell id="lglR9xMXQ9shgzc-vVbZ-7" value="" style="line;strokeWidth=1;fillColor=none;align=left;verticalAlign=middle;spacingTop=-1;spacingLeft=3;spacingRight=3;rotatable=0;labelPosition=right;points=[];portConstraint=eastwest;strokeColor=inherit;" parent="lglR9xMXQ9shgzc-vVbZ-5" vertex="1">
          <mxGeometry y="52" width="497.29" height="8" as="geometry" />
        </mxCell>
        <mxCell id="lglR9xMXQ9shgzc-vVbZ-8" value="+FSMCondition(Func&amp;lt;T, bool&amp;gt; handle)" style="text;strokeColor=none;fillColor=none;align=left;verticalAlign=top;spacingLeft=4;spacingRight=4;overflow=hidden;rotatable=0;points=[[0,0.5],[1,0.5]];portConstraint=eastwest;whiteSpace=wrap;html=1;" parent="lglR9xMXQ9shgzc-vVbZ-5" vertex="1">
          <mxGeometry y="60" width="497.29" height="26" as="geometry" />
        </mxCell>
        <mxCell id="lglR9xMXQ9shgzc-vVbZ-9" value="+FSMCondition()" style="text;strokeColor=none;fillColor=none;align=left;verticalAlign=top;spacingLeft=4;spacingRight=4;overflow=hidden;rotatable=0;points=[[0,0.5],[1,0.5]];portConstraint=eastwest;whiteSpace=wrap;html=1;" parent="lglR9xMXQ9shgzc-vVbZ-5" vertex="1">
          <mxGeometry y="86" width="497.29" height="26" as="geometry" />
        </mxCell>
        <mxCell id="lglR9xMXQ9shgzc-vVbZ-10" value="+BindCOndition(Func&amp;lt;T, bool&amp;gt; handle) : void" style="text;strokeColor=none;fillColor=none;align=left;verticalAlign=top;spacingLeft=4;spacingRight=4;overflow=hidden;rotatable=0;points=[[0,0.5],[1,0.5]];portConstraint=eastwest;whiteSpace=wrap;html=1;" parent="lglR9xMXQ9shgzc-vVbZ-5" vertex="1">
          <mxGeometry y="112" width="497.29" height="26" as="geometry" />
        </mxCell>
        <mxCell id="ADLs4xy4XqtTe4u1tksE-0" value="+ Condition(T owner) : bool virtual" style="text;strokeColor=none;fillColor=none;align=left;verticalAlign=top;spacingLeft=4;spacingRight=4;overflow=hidden;rotatable=0;points=[[0,0.5],[1,0.5]];portConstraint=eastwest;whiteSpace=wrap;html=1;" vertex="1" parent="lglR9xMXQ9shgzc-vVbZ-5">
          <mxGeometry y="138" width="497.29" height="26" as="geometry" />
        </mxCell>
        <mxCell id="ADLs4xy4XqtTe4u1tksE-1" value="+ operator&amp;amp;(FSMCondition con1 , FSMCondition con2) : FSMCondition&amp;lt;T&amp;gt; static" style="text;strokeColor=none;fillColor=none;align=left;verticalAlign=top;spacingLeft=4;spacingRight=4;overflow=hidden;rotatable=0;points=[[0,0.5],[1,0.5]];portConstraint=eastwest;whiteSpace=wrap;html=1;" vertex="1" parent="lglR9xMXQ9shgzc-vVbZ-5">
          <mxGeometry y="164" width="497.29" height="26" as="geometry" />
        </mxCell>
        <mxCell id="ADLs4xy4XqtTe4u1tksE-2" value="+ operator|(FSMCondition con1 , FSMCondition con2) : FSMCondition&amp;lt;T&amp;gt; static" style="text;strokeColor=none;fillColor=none;align=left;verticalAlign=top;spacingLeft=4;spacingRight=4;overflow=hidden;rotatable=0;points=[[0,0.5],[1,0.5]];portConstraint=eastwest;whiteSpace=wrap;html=1;" vertex="1" parent="lglR9xMXQ9shgzc-vVbZ-5">
          <mxGeometry y="190" width="497.29" height="26" as="geometry" />
        </mxCell>
        <mxCell id="ADLs4xy4XqtTe4u1tksE-3" value="+ operator!(FSMCondition con1 , FSMCondition con2) : FSMCondition&amp;lt;T&amp;gt; static" style="text;strokeColor=none;fillColor=none;align=left;verticalAlign=top;spacingLeft=4;spacingRight=4;overflow=hidden;rotatable=0;points=[[0,0.5],[1,0.5]];portConstraint=eastwest;whiteSpace=wrap;html=1;" vertex="1" parent="lglR9xMXQ9shgzc-vVbZ-5">
          <mxGeometry y="216" width="497.29" height="26" as="geometry" />
        </mxCell>
        <mxCell id="ADLs4xy4XqtTe4u1tksE-4" value="FSMCondition&amp;lt;T1, T2&amp;gt;" style="swimlane;fontStyle=1;align=center;verticalAlign=top;childLayout=stackLayout;horizontal=1;startSize=26;horizontalStack=0;resizeParent=1;resizeParentMax=0;resizeLast=0;collapsible=1;marginBottom=0;whiteSpace=wrap;html=1;" vertex="1" parent="WIyWlLk6GJQsqaUBKTNV-1">
          <mxGeometry y="910" width="497.29" height="190" as="geometry" />
        </mxCell>
        <mxCell id="ADLs4xy4XqtTe4u1tksE-5" value="_condition : Func&amp;lt;T1, T2, bool&amp;gt;&lt;div&gt;&lt;br&gt;&lt;/div&gt;" style="text;strokeColor=none;fillColor=none;align=left;verticalAlign=top;spacingLeft=4;spacingRight=4;overflow=hidden;rotatable=0;points=[[0,0.5],[1,0.5]];portConstraint=eastwest;whiteSpace=wrap;html=1;" vertex="1" parent="ADLs4xy4XqtTe4u1tksE-4">
          <mxGeometry y="26" width="497.29" height="26" as="geometry" />
        </mxCell>
        <mxCell id="ADLs4xy4XqtTe4u1tksE-14" value="_value : T2" style="text;strokeColor=none;fillColor=none;align=left;verticalAlign=top;spacingLeft=4;spacingRight=4;overflow=hidden;rotatable=0;points=[[0,0.5],[1,0.5]];portConstraint=eastwest;whiteSpace=wrap;html=1;" vertex="1" parent="ADLs4xy4XqtTe4u1tksE-4">
          <mxGeometry y="52" width="497.29" height="26" as="geometry" />
        </mxCell>
        <mxCell id="ADLs4xy4XqtTe4u1tksE-6" value="" style="line;strokeWidth=1;fillColor=none;align=left;verticalAlign=middle;spacingTop=-1;spacingLeft=3;spacingRight=3;rotatable=0;labelPosition=right;points=[];portConstraint=eastwest;strokeColor=inherit;" vertex="1" parent="ADLs4xy4XqtTe4u1tksE-4">
          <mxGeometry y="78" width="497.29" height="8" as="geometry" />
        </mxCell>
        <mxCell id="ADLs4xy4XqtTe4u1tksE-7" value="+FSMCondition(Func&amp;lt;T1, T2, bool&amp;gt; condition, T2 value)" style="text;strokeColor=none;fillColor=none;align=left;verticalAlign=top;spacingLeft=4;spacingRight=4;overflow=hidden;rotatable=0;points=[[0,0.5],[1,0.5]];portConstraint=eastwest;whiteSpace=wrap;html=1;" vertex="1" parent="ADLs4xy4XqtTe4u1tksE-4">
          <mxGeometry y="86" width="497.29" height="26" as="geometry" />
        </mxCell>
        <mxCell id="ADLs4xy4XqtTe4u1tksE-8" value="+FSMCondition()" style="text;strokeColor=none;fillColor=none;align=left;verticalAlign=top;spacingLeft=4;spacingRight=4;overflow=hidden;rotatable=0;points=[[0,0.5],[1,0.5]];portConstraint=eastwest;whiteSpace=wrap;html=1;" vertex="1" parent="ADLs4xy4XqtTe4u1tksE-4">
          <mxGeometry y="112" width="497.29" height="26" as="geometry" />
        </mxCell>
        <mxCell id="ADLs4xy4XqtTe4u1tksE-9" value="+BindCOndition(Func&amp;lt;T1, T2, bool&amp;gt; condition, T2 value) : void" style="text;strokeColor=none;fillColor=none;align=left;verticalAlign=top;spacingLeft=4;spacingRight=4;overflow=hidden;rotatable=0;points=[[0,0.5],[1,0.5]];portConstraint=eastwest;whiteSpace=wrap;html=1;" vertex="1" parent="ADLs4xy4XqtTe4u1tksE-4">
          <mxGeometry y="138" width="497.29" height="26" as="geometry" />
        </mxCell>
        <mxCell id="ADLs4xy4XqtTe4u1tksE-10" value="+ Condition(T owner) : bool virtual" style="text;strokeColor=none;fillColor=none;align=left;verticalAlign=top;spacingLeft=4;spacingRight=4;overflow=hidden;rotatable=0;points=[[0,0.5],[1,0.5]];portConstraint=eastwest;whiteSpace=wrap;html=1;" vertex="1" parent="ADLs4xy4XqtTe4u1tksE-4">
          <mxGeometry y="164" width="497.29" height="26" as="geometry" />
        </mxCell>
        <mxCell id="ADLs4xy4XqtTe4u1tksE-24" value="FSMState&amp;lt;T&amp;gt;" style="swimlane;fontStyle=1;align=center;verticalAlign=top;childLayout=stackLayout;horizontal=1;startSize=26;horizontalStack=0;resizeParent=1;resizeParentMax=0;resizeLast=0;collapsible=1;marginBottom=0;whiteSpace=wrap;html=1;" vertex="1" parent="WIyWlLk6GJQsqaUBKTNV-1">
          <mxGeometry x="720" y="490" width="433" height="346" as="geometry" />
        </mxCell>
        <mxCell id="ADLs4xy4XqtTe4u1tksE-25" value="-_enterHandle : Action&amp;lt;T&amp;gt;" style="text;strokeColor=none;fillColor=none;align=left;verticalAlign=top;spacingLeft=4;spacingRight=4;overflow=hidden;rotatable=0;points=[[0,0.5],[1,0.5]];portConstraint=eastwest;whiteSpace=wrap;html=1;" vertex="1" parent="ADLs4xy4XqtTe4u1tksE-24">
          <mxGeometry y="26" width="433" height="26" as="geometry" />
        </mxCell>
        <mxCell id="ADLs4xy4XqtTe4u1tksE-28" value="-_updateHandle : Action&amp;lt;T&amp;gt;" style="text;strokeColor=none;fillColor=none;align=left;verticalAlign=top;spacingLeft=4;spacingRight=4;overflow=hidden;rotatable=0;points=[[0,0.5],[1,0.5]];portConstraint=eastwest;whiteSpace=wrap;html=1;" vertex="1" parent="ADLs4xy4XqtTe4u1tksE-24">
          <mxGeometry y="52" width="433" height="26" as="geometry" />
        </mxCell>
        <mxCell id="ADLs4xy4XqtTe4u1tksE-29" value="-_exitHandle : Action&amp;lt;T&amp;gt;" style="text;strokeColor=none;fillColor=none;align=left;verticalAlign=top;spacingLeft=4;spacingRight=4;overflow=hidden;rotatable=0;points=[[0,0.5],[1,0.5]];portConstraint=eastwest;whiteSpace=wrap;html=1;" vertex="1" parent="ADLs4xy4XqtTe4u1tksE-24">
          <mxGeometry y="78" width="433" height="26" as="geometry" />
        </mxCell>
        <mxCell id="ADLs4xy4XqtTe4u1tksE-26" value="" style="line;strokeWidth=1;fillColor=none;align=left;verticalAlign=middle;spacingTop=-1;spacingLeft=3;spacingRight=3;rotatable=0;labelPosition=right;points=[];portConstraint=eastwest;strokeColor=inherit;" vertex="1" parent="ADLs4xy4XqtTe4u1tksE-24">
          <mxGeometry y="104" width="433" height="8" as="geometry" />
        </mxCell>
        <mxCell id="ADLs4xy4XqtTe4u1tksE-27" value="+ BindEnterAction(Action&amp;lt;T&amp;gt; action) : void" style="text;strokeColor=none;fillColor=none;align=left;verticalAlign=top;spacingLeft=4;spacingRight=4;overflow=hidden;rotatable=0;points=[[0,0.5],[1,0.5]];portConstraint=eastwest;whiteSpace=wrap;html=1;" vertex="1" parent="ADLs4xy4XqtTe4u1tksE-24">
          <mxGeometry y="112" width="433" height="26" as="geometry" />
        </mxCell>
        <mxCell id="ADLs4xy4XqtTe4u1tksE-30" value="+ BindUpdateAction(Action&amp;lt;T&amp;gt; action) : void" style="text;strokeColor=none;fillColor=none;align=left;verticalAlign=top;spacingLeft=4;spacingRight=4;overflow=hidden;rotatable=0;points=[[0,0.5],[1,0.5]];portConstraint=eastwest;whiteSpace=wrap;html=1;" vertex="1" parent="ADLs4xy4XqtTe4u1tksE-24">
          <mxGeometry y="138" width="433" height="26" as="geometry" />
        </mxCell>
        <mxCell id="ADLs4xy4XqtTe4u1tksE-38" value="+ BindExitAction(Action&amp;lt;T&amp;gt; action) : void" style="text;strokeColor=none;fillColor=none;align=left;verticalAlign=top;spacingLeft=4;spacingRight=4;overflow=hidden;rotatable=0;points=[[0,0.5],[1,0.5]];portConstraint=eastwest;whiteSpace=wrap;html=1;" vertex="1" parent="ADLs4xy4XqtTe4u1tksE-24">
          <mxGeometry y="164" width="433" height="26" as="geometry" />
        </mxCell>
        <mxCell id="ADLs4xy4XqtTe4u1tksE-39" value="+ AddCondition(FSMCondition&amp;lt;T&amp;gt; condition, string stateName) : void" style="text;strokeColor=none;fillColor=none;align=left;verticalAlign=top;spacingLeft=4;spacingRight=4;overflow=hidden;rotatable=0;points=[[0,0.5],[1,0.5]];portConstraint=eastwest;whiteSpace=wrap;html=1;" vertex="1" parent="ADLs4xy4XqtTe4u1tksE-24">
          <mxGeometry y="190" width="433" height="26" as="geometry" />
        </mxCell>
        <mxCell id="ADLs4xy4XqtTe4u1tksE-40" value="+ RemoveCondition(FSMCondition&amp;lt;T&amp;gt; condition) : void" style="text;strokeColor=none;fillColor=none;align=left;verticalAlign=top;spacingLeft=4;spacingRight=4;overflow=hidden;rotatable=0;points=[[0,0.5],[1,0.5]];portConstraint=eastwest;whiteSpace=wrap;html=1;" vertex="1" parent="ADLs4xy4XqtTe4u1tksE-24">
          <mxGeometry y="216" width="433" height="26" as="geometry" />
        </mxCell>
        <mxCell id="ADLs4xy4XqtTe4u1tksE-41" value="+ CheckCondition(T owner, out string stateName) : bool" style="text;strokeColor=none;fillColor=none;align=left;verticalAlign=top;spacingLeft=4;spacingRight=4;overflow=hidden;rotatable=0;points=[[0,0.5],[1,0.5]];portConstraint=eastwest;whiteSpace=wrap;html=1;" vertex="1" parent="ADLs4xy4XqtTe4u1tksE-24">
          <mxGeometry y="242" width="433" height="26" as="geometry" />
        </mxCell>
        <mxCell id="ADLs4xy4XqtTe4u1tksE-42" value="+ OnEnter(T owner) : void virtual" style="text;strokeColor=none;fillColor=none;align=left;verticalAlign=top;spacingLeft=4;spacingRight=4;overflow=hidden;rotatable=0;points=[[0,0.5],[1,0.5]];portConstraint=eastwest;whiteSpace=wrap;html=1;" vertex="1" parent="ADLs4xy4XqtTe4u1tksE-24">
          <mxGeometry y="268" width="433" height="26" as="geometry" />
        </mxCell>
        <mxCell id="ADLs4xy4XqtTe4u1tksE-43" value="+ OnUpdate(T owner) : void virtual" style="text;strokeColor=none;fillColor=none;align=left;verticalAlign=top;spacingLeft=4;spacingRight=4;overflow=hidden;rotatable=0;points=[[0,0.5],[1,0.5]];portConstraint=eastwest;whiteSpace=wrap;html=1;" vertex="1" parent="ADLs4xy4XqtTe4u1tksE-24">
          <mxGeometry y="294" width="433" height="26" as="geometry" />
        </mxCell>
        <mxCell id="ADLs4xy4XqtTe4u1tksE-44" value="+ OnExit(T owner) : void virtual" style="text;strokeColor=none;fillColor=none;align=left;verticalAlign=top;spacingLeft=4;spacingRight=4;overflow=hidden;rotatable=0;points=[[0,0.5],[1,0.5]];portConstraint=eastwest;whiteSpace=wrap;html=1;" vertex="1" parent="ADLs4xy4XqtTe4u1tksE-24">
          <mxGeometry y="320" width="433" height="26" as="geometry" />
        </mxCell>
      </root>
    </mxGraphModel>
  </diagram>
</mxfile>
